<svg width="70" height="49" viewBox="0 0 70 49" fill="none" xmlns="http://www.w3.org/2000/svg">
<rect y="0.637695" width="70" height="48" rx="4" fill="#F3FBFF"/>
<path d="M30.4715 36.1749L30.9005 33.4499L29.9449 33.4277H25.3816L28.5529 13.3195C28.5626 13.2587 28.5947 13.2021 28.6414 13.1619C28.6882 13.1218 28.7482 13.0996 28.8105 13.0996H36.5049C39.0594 13.0996 40.8222 13.6312 41.7426 14.6803C42.174 15.1725 42.4489 15.6869 42.5818 16.2529C42.7212 16.8468 42.7237 17.5564 42.5875 18.4218L42.5776 18.485V19.0395L43.0092 19.2839C43.3726 19.4767 43.6612 19.6974 43.8827 19.95C44.252 20.3708 44.4907 20.9057 44.5916 21.5398C44.6957 22.1919 44.6612 22.9679 44.4907 23.8465C44.2938 24.8571 43.9755 25.7373 43.5457 26.4576C43.1502 27.1212 42.6465 27.6715 42.0486 28.0982C41.4777 28.5034 40.7993 28.8111 40.0323 29.008C39.2889 29.2014 38.4417 29.2992 37.5123 29.2992H36.9134C36.4853 29.2992 36.0693 29.4534 35.7429 29.7299C35.4156 30.0121 35.1989 30.3974 35.1325 30.8192L35.0874 31.0645L34.3294 35.8672L34.2949 36.0436C34.286 36.0996 34.2704 36.1275 34.2475 36.1463C34.2269 36.1633 34.1974 36.1749 34.1686 36.1749H30.4715Z" fill="#253B80"/>
<path d="M43.4159 18.5503C43.393 18.6971 43.3668 18.8472 43.3372 19.0015C42.3223 24.2113 38.8509 26.011 34.417 26.011H32.1596C31.6174 26.011 31.1605 26.4048 31.076 26.9396L29.9201 34.27L29.5928 36.3477C29.5378 36.6989 29.8086 37.0155 30.1628 37.0155H34.167C34.6411 37.0155 35.0437 36.671 35.1184 36.2034L35.1578 35.9999L35.9118 31.2158L35.9602 30.9535C36.0338 30.4843 36.4374 30.1398 36.9116 30.1398H37.5104C41.3896 30.1398 44.4265 28.5647 45.3142 24.007C45.6849 22.103 45.4929 20.5133 44.5118 19.3952C44.2149 19.0581 43.8466 18.7783 43.4159 18.5503Z" fill="#179BD7"/>
<path d="M42.3523 18.1259C42.1974 18.0808 42.0373 18.0398 41.8732 18.0029C41.7084 17.9668 41.5393 17.9348 41.3655 17.9069C40.7568 17.8085 40.0899 17.7617 39.3754 17.7617H33.3445C33.196 17.7617 33.055 17.7953 32.9287 17.8561C32.6505 17.9898 32.4439 18.2531 32.3938 18.5755L31.1107 26.7015L31.0739 26.9385C31.1584 26.4037 31.6153 26.0099 32.1575 26.0099H34.4149C38.8488 26.0099 42.3204 24.2094 43.3351 19.0004C43.3653 18.8462 43.3908 18.6961 43.4137 18.5492C43.1571 18.413 42.8789 18.2966 42.5795 18.1973C42.5058 18.1727 42.4295 18.1489 42.3523 18.1259Z" fill="#222D65"/>
<path d="M32.3973 18.5758C32.4474 18.2534 32.6543 17.9901 32.9322 17.8572C33.0595 17.7965 33.1997 17.7629 33.348 17.7629H39.3791C40.0937 17.7629 40.7605 17.8096 41.369 17.9081C41.5431 17.936 41.7121 17.968 41.8769 18.0041C42.0411 18.041 42.2009 18.082 42.3561 18.1271C42.433 18.1501 42.5093 18.1739 42.5839 18.1977C42.8834 18.2969 43.1615 18.4142 43.4182 18.5496C43.7202 16.6243 43.4158 15.3134 42.375 14.1264C41.2273 12.8197 39.156 12.2603 36.5056 12.2603H28.8109C28.2695 12.2603 27.8078 12.654 27.724 13.1897L24.5192 33.5047C24.4559 33.9066 24.766 34.2693 25.1712 34.2693H29.9217L31.1144 26.7018L32.3973 18.5758Z" fill="#253B80"/>
</svg>
