<svg width="70" height="49" viewBox="0 0 70 49" fill="none" xmlns="http://www.w3.org/2000/svg">
<rect y="0.637695" width="70" height="48" rx="4" fill="#EBF3FA"/>
<path d="M29.9482 32.8033H25.9902L28.4658 17.4961H32.4236L29.9482 32.8033Z" fill="#00579F"/>
<path d="M44.2947 17.8704C43.514 17.5607 42.2758 17.2188 40.7447 17.2188C36.8361 17.2188 34.0837 19.303 34.0668 22.2829C34.0343 24.4815 36.0374 25.7026 37.5356 26.4357C39.0669 27.1847 39.5874 27.6737 39.5874 28.3414C39.5718 29.3669 38.35 29.8396 37.2105 29.8396C35.6303 29.8396 34.7836 29.5958 33.4969 29.0253L32.9757 28.7807L32.4219 32.2169C33.3502 32.6398 35.0604 33.0151 36.8361 33.0315C40.989 33.0315 43.6928 30.9795 43.7248 27.804C43.7406 26.0614 42.6829 24.7263 40.4025 23.6352C39.0182 22.9348 38.1704 22.4626 38.1704 21.7459C38.1866 21.0945 38.8875 20.4272 40.4501 20.4272C41.7368 20.3945 42.6822 20.7038 43.3984 21.0133L43.7564 21.1758L44.2947 17.8704Z" fill="#00579F"/>
<path d="M49.5572 27.3805C49.8832 26.5011 51.1374 23.0977 51.1374 23.0977C51.121 23.1303 51.4627 22.2021 51.6582 21.6322L51.9348 22.9511C51.9348 22.9511 52.6843 26.6152 52.847 27.3805C52.2285 27.3805 50.339 27.3805 49.5572 27.3805ZM54.4428 17.4961H51.3813C50.4372 17.4961 49.72 17.7727 49.3126 18.7661L43.4336 32.8031H47.5866C47.5866 32.8031 48.2703 30.9138 48.4172 30.5069C48.8728 30.5069 52.9128 30.5069 53.4989 30.5069C53.6126 31.0443 53.9712 32.8031 53.9712 32.8031H57.6359L54.4428 17.4961Z" fill="#00579F"/>
<path d="M22.684 17.4961L18.8078 27.9341L18.3843 25.8172C17.6676 23.3745 15.4202 20.7206 12.9121 19.4009L16.4625 32.7871H20.648L26.8692 17.4961H22.684Z" fill="#00579F"/>
<path d="M15.2085 17.4961H8.84054L8.77539 17.8054C13.7428 19.0756 17.0326 22.1376 18.3843 25.8178L16.9999 18.7828C16.772 17.8052 16.0717 17.5283 15.2085 17.4961Z" fill="#FAA61A"/>
</svg>
