<svg width="17" height="18" viewBox="0 0 17 18" fill="none" xmlns="http://www.w3.org/2000/svg">
<path d="M16.5442 8.80335C16.5442 8.22057 16.4973 7.63778 16.4035 7.06689H8.44348V10.3614H13.0038C12.8162 11.4199 12.2066 12.3714 11.3156 12.9661V15.1069H14.0354C15.6298 13.6202 16.5442 11.4199 16.5442 8.80335Z" fill="#4285F4"/>
<path d="M8.44385 17.1764C10.7181 17.1764 12.6407 16.4152 14.0358 15.107L11.316 12.9661C10.554 13.4894 9.58099 13.7868 8.44385 13.7868C6.2399 13.7868 4.37593 12.2763 3.70771 10.2544H0.905884V12.4666C2.3361 15.3567 5.25516 17.1764 8.44385 17.1764Z" fill="#34A853"/>
<path d="M3.70803 10.2544C3.35628 9.19587 3.35628 8.0422 3.70803 6.97179V4.77148H0.905755C-0.301918 7.18587 -0.301918 10.0403 0.905755 12.4547L3.70803 10.2544Z" fill="#FBBC04"/>
<path d="M8.44385 3.43949C9.65133 3.4157 10.8119 3.87955 11.6794 4.72399L14.0944 2.27392C12.5587 0.822913 10.5423 0.026047 8.44385 0.049834C5.25516 0.049834 2.3361 1.88144 0.905884 4.77156L3.70771 6.98376C4.37593 4.94997 6.2399 3.43949 8.44385 3.43949Z" fill="#EA4335"/>
</svg>
