<svg width="95" height="19" viewBox="0 0 95 19" fill="none" xmlns="http://www.w3.org/2000/svg">
<path d="M11.1862 7.27301L11.2939 7.62771H11.6646H17.5423L12.7583 11.3473L12.4869 11.5583L12.5868 11.8872L14.3323 17.6391L9.80694 14.1199L9.5 13.8813L9.19306 14.1199L4.66766 17.6391L6.41324 11.8872L6.51306 11.5583L6.24169 11.3473L1.45768 7.62771H7.33536H7.70606L7.81378 7.27301L9.5 1.72064L11.1862 7.27301Z" fill="#FCBE20" stroke="#484848"></path>
<path d="M30.1862 7.27301L30.2939 7.62771H30.6646H36.5423L31.7583 11.3473L31.4869 11.5583L31.5868 11.8872L33.3323 17.6391L28.8069 14.1199L28.5 13.8813L28.1931 14.1199L23.6677 17.6391L25.4132 11.8872L25.5131 11.5583L25.2417 11.3473L20.4577 7.62771H26.3354H26.7061L26.8138 7.27301L28.5 1.72064L30.1862 7.27301Z" fill="#FCBE20" stroke="#484848"></path>
<path d="M49.1862 7.27301L49.2939 7.62771H49.6646H55.5423L50.7583 11.3473L50.4869 11.5583L50.5868 11.8872L52.3323 17.6391L47.8069 14.1199L47.5 13.8813L47.1931 14.1199L42.6677 17.6391L44.4132 11.8872L44.5131 11.5583L44.2417 11.3473L39.4577 7.62771H45.3354H45.7061L45.8138 7.27301L47.5 1.72064L49.1862 7.27301Z" fill="#FCBE20" stroke="#484848"></path>
<path d="M68.1862 7.27301L68.2939 7.62771H68.6646H74.5423L69.7583 11.3473L69.4869 11.5583L69.5868 11.8872L71.3323 17.6391L66.8069 14.1199L66.5 13.8813L66.1931 14.1199L61.6677 17.6391L63.4132 11.8872L63.5131 11.5583L63.2417 11.3473L58.4577 7.62771H64.3354H64.7061L64.8138 7.27301L66.5 1.72064L68.1862 7.27301Z" fill="#FCBE20" stroke="#484848"></path>
<path d="M87.1862 7.27301L87.2939 7.62771H87.6646H93.5423L88.7583 11.3473L88.4869 11.5583L88.5868 11.8872L90.3323 17.6391L85.8069 14.1199L85.5 13.8813L85.1931 14.1199L80.6677 17.6391L82.4132 11.8872L82.5131 11.5583L82.2417 11.3473L77.4577 7.62771H83.3354H83.7061L83.8138 7.27301L85.5 1.72064L87.1862 7.27301Z" fill="#FCBE20" stroke="#484848"></path>
</svg>
